<svg xmlns="http://www.w3.org/2000/svg" xmlns:xlink="http://www.w3.org/1999/xlink" width="125" height="35" viewBox="0 0 125 35">
    <defs>
        <path id="a" d="M102.299 17.281c.523 2.232 1.287 3.347 2.247 3.347.808 0 1.79-.416 2.924-1.269l1.92-1.422c.459.175.699.504.699.985 0 .087-.044.284-.131.612-.11.35-.153.547-.153.57v.065c0 .197-.022.437-.044.787-.349.853-.829 2.122-1.418 3.85-.196.219-.567.919-1.135 2.144.022 0 .022-.022.022-.022v.022c0 .022-.196.59-.61 1.684-.219.591-.525 1.378-.917 2.32-.044.24-.131.655-.24 1.246-.022.11-.11.372-.284.81-.153.35-.218.612-.218.809 0 .065.022.131.043.175-.13.24-.392.525-.763.897h-.48c-.219-.394-.328-.7-.328-.875 0-.722.48-2.297 1.419-4.725.37-.963.829-2.079 1.374-3.347.175-.328.48-.919.873-1.794.131-.416.284-.81.437-1.116.13-.218.37-.787.698-1.75-.022-.021-.022-.065-.022-.109 0-.066.022-.175.044-.284.022-.066.022-.11.022-.132 0-.065-.022-.109-.066-.109-.065 0-.502.153-1.287.481-.808.328-1.222.482-1.266.482-.153 0-.524.043-1.091.13a13.77 13.77 0 0 1-.982.132c-.59 0-1.113-.481-1.593-1.422-.415-.831-.633-1.575-.633-2.275 0-.197.11-.503.306-.897h.633zM39.06 7.284c2.379 0 4.277.788 5.674 2.385 1.418 1.597 2.116 3.828 2.116 6.672l-.021.328H34.216c.044 1.619.567 2.931 1.571 3.915 1.004.985 2.204 1.488 3.6 1.488 1.92 0 3.427-.985 4.518-2.975l2.684 1.356c-.72 1.4-1.724 2.494-2.99 3.281a8.337 8.337 0 0 1-4.342 1.182c-2.357 0-4.3-.832-5.827-2.494-1.527-1.663-2.29-3.785-2.29-6.322 0-2.516.741-4.638 2.225-6.3 1.484-1.684 3.382-2.516 5.695-2.516zM51.782.154v7.633l-.13 2.297h.13a5.553 5.553 0 0 1 2.248-2.056c.96-.525 2.05-.787 3.23-.787 2.116 0 3.905.853 5.367 2.58 1.506 1.729 2.248 3.829 2.248 6.257 0 2.45-.764 4.55-2.248 6.256-1.462 1.707-3.251 2.582-5.368 2.582-1.178 0-2.247-.263-3.23-.788-.981-.525-1.723-1.203-2.247-2.056h-.13v2.297H48.77V.153h3.011zM6.786 7.24c1.419 0 2.706.35 3.841 1.05 1.135.7 1.942 1.64 2.4 2.8l-2.684 1.159a3.484 3.484 0 0 0-1.484-1.64 4.608 4.608 0 0 0-2.313-.591c-.785 0-1.483.197-2.116.612-.611.416-.939.897-.939 1.488 0 .94.851 1.619 2.597 2.034l2.422.634c3.23.81 4.823 2.472 4.823 4.966 0 1.444-.611 2.669-1.833 3.653-1.222.985-2.771 1.488-4.626 1.488-1.615 0-3.033-.438-4.255-1.313A7.177 7.177 0 0 1 0 20.147l2.684-1.181c.393.984.96 1.771 1.724 2.318.742.547 1.571.832 2.466.832.96 0 1.767-.22 2.4-.635.633-.437.96-.94.96-1.531 0-1.05-.785-1.837-2.356-2.34l-2.75-.7C2.008 16.1.436 14.546.436 12.25c0-1.51.59-2.713 1.79-3.631 1.2-.919 2.706-1.378 4.56-1.378zm66.12 0c2.225 0 3.97.612 5.28 1.837 1.287 1.225 1.942 2.91 1.942 5.053v10.216h-2.88V22.05h-.131c-1.244 1.903-2.903 2.844-4.976 2.844-1.767 0-3.25-.547-4.43-1.619-1.2-1.072-1.789-2.428-1.789-4.069 0-1.706.633-3.084 1.877-4.09 1.244-1.007 2.924-1.532 5.019-1.532 1.79 0 3.251.329 4.43 1.007v-.7c0-1.072-.415-1.991-1.244-2.757-.83-.765-1.811-1.137-2.924-1.137-1.68 0-3.012.744-3.994 2.21l-2.662-1.729c1.462-2.144 3.623-3.237 6.481-3.237zM18.133.153v7.635l-.131 2.296h.13c.459-.809 1.157-1.487 2.117-2.034a5.83 5.83 0 0 1 2.968-.81c1.964 0 3.47.591 4.539 1.75 1.069 1.16 1.593 2.822 1.593 4.966V24.37h-3.012v-9.8c0-2.975-1.287-4.463-3.84-4.463-1.222 0-2.248.525-3.099 1.575-.85 1.05-1.265 2.275-1.265 3.675v9.035h-3.012V.153h3.012zM90.23 14.57c.044 0 .699.35 1.986 1.028 1.266.7 1.942 1.05 2.008 1.05.043 0 .829-.328 2.313-.984 1.484-.657 2.378-.985 2.684-.985.327 0 .763.197 1.309.613v.48c-.044.023-.436.066-1.156.132-.131.022-.96.219-2.488.635-.415.109-.851.48-1.331 1.137.72.875 1.92 1.837 3.6 2.91.808.524 1.266.83 1.331.896 0 .547-.349.831-1.025.831-.262 0-1.2-.568-2.793-1.728-1.615-1.159-2.466-1.728-2.532-1.728-1.09 0-2.269 1.05-3.557 3.172-.109.175-.174.394-.196.678-.022.35-.044.569-.065.678-.088.328-.35.591-.764.766a6.89 6.89 0 0 0-.218-.897c-.11-.394-.153-.678-.153-.897 0-.525.284-1.181.873-1.925.305-.372 1.244-1.29 2.858-2.734-.349-.416-.829-.766-1.483-1.05l-1.659-.744c-.13-.328-.174-.547-.174-.634 0-.46.218-.7.632-.7zm27.997.131c.502.131.742.525.742 1.181 0 .875-.742 1.99-2.226 3.347-.109.11-1.2 1.072-3.295 2.888.131.153.328.218.59.218h.305c0-.021 1.156-.13 3.491-.328 1.135-.087 2.553-.218 4.277-.393.022 0 .153-.044.437-.132.283-.087.458-.131.524-.131.48.044.96.219 1.418.612-.437.197-.873.35-1.31.504-.349.109-1.003.218-1.985.306l-2.008.175c-.174.066-.48.175-.96.328-1.2.306-2.466.46-3.819.46-.436 0-1.003-.066-1.702-.22-.829-.174-1.309-.393-1.483-.656v-.897l3.185-2.45c1.222-.94 2.183-1.859 2.88-2.8-.108-.306-.283-.48-.523-.48h-.218c-.087 0-.72.152-1.899.415-1.178.284-1.833.416-1.985.416-.11 0-.415-.11-.873-.307 0-.022 0-.11-.022-.284-.022-.153-.022-.24-.022-.285 0-.153.022-.284.066-.371l6.415-1.116zm-33.321 6.103c.24 0 .458.131.676.416.24.24.328.525.328.787 0 .219-.218.482-.655.831-.415.329-.764.504-1.004.504s-.633-.132-1.156-.416c.065-.306.196-.7.393-1.225.13-.175.37-.35.698-.569.327-.218.567-.328.72-.328zm-11.63-4.681c-1.223 0-2.248.306-3.056.919-.807.59-1.222 1.356-1.222 2.253 0 .81.327 1.487 1.004 2.034.655.547 1.44.81 2.335.81 1.265 0 2.4-.482 3.382-1.444.982-.963 1.484-2.1 1.484-3.413-.938-.765-2.248-1.16-3.928-1.16zm-16.52-5.994c-1.462 0-2.684.569-3.666 1.684-.96 1.138-1.44 2.56-1.44 4.288 0 1.75.48 3.194 1.44 4.331.982 1.072 2.204 1.64 3.666 1.64 1.44 0 2.663-.568 3.623-1.684.982-1.115 1.484-2.537 1.484-4.287 0-1.728-.48-3.172-1.484-4.288-.982-1.137-2.204-1.684-3.623-1.684zm-17.762-.044c-1.135 0-2.117.35-2.924 1.072-.83.744-1.375 1.707-1.637 2.931h9.209c-.088-1.159-.546-2.1-1.353-2.865-.83-.766-1.92-1.138-3.295-1.138z"/>
    </defs>
    <g fill="none" fill-rule="evenodd">
        <mask id="b" fill="#fff">
            <use xlink:href="#a"/>
        </mask>
        <use fill="#28323D" fill-rule="nonzero" xlink:href="#a"/>
        <g fill="#000" mask="url(#b)">
            <path d="M0 0h125v35H0z"/>
        </g>
    </g>
</svg>
